<svg width="180" height="279" viewBox="0 0 180 279" fill="none" xmlns="http://www.w3.org/2000/svg">
<path fill-rule="evenodd" clip-rule="evenodd" d="M127.297 51.1699C156.52 38.1727 174.804 -1.54532 206.696 0.0465025C234.655 1.44203 252.645 33.2183 265.957 58.0909C279.094 82.6362 291.617 113.174 281.038 138.949C270.076 165.657 229.785 165.607 212.401 188.577C198.369 207.119 211.912 240.647 193.452 254.683C175.525 268.314 149.472 249.824 127.297 253.287C99.601 257.613 74.8576 286.014 48.1703 277.374C22.4703 269.053 7.26141 239.036 1.22051 212.469C-4.4281 187.627 11.0466 163.791 16.6947 138.949C21.0581 119.758 18.7939 98.2043 30.7384 82.6421C42.3294 67.5402 62.0815 62.226 80.0859 56.3576C95.4118 51.3623 112.558 57.725 127.297 51.1699Z" fill="#E1D6C4"/>
<path fill-rule="evenodd" clip-rule="evenodd" d="M131.897 57.5674C158.044 46.2472 174.404 11.6541 202.938 13.0405C227.955 14.256 244.051 41.9321 255.961 63.5953C267.715 84.9735 278.92 111.571 269.455 134.02C259.647 157.282 223.597 157.238 208.043 177.244C195.488 193.394 207.606 222.595 191.089 234.821C175.049 246.693 151.738 230.588 131.897 233.605C107.117 237.372 84.9778 262.109 61.0997 254.584C38.105 247.337 24.497 221.193 19.092 198.054C14.038 176.417 27.8838 155.657 32.9374 134.02C36.8415 117.305 34.8156 98.5328 45.5027 84.9786C55.8737 71.8254 73.5466 67.1968 89.6558 62.0857C103.368 57.7349 118.71 63.2766 131.897 57.5674Z" fill="#EFE8DC"/>
</svg>
