<svg width="210" height="188" viewBox="0 0 210 188" fill="none" xmlns="http://www.w3.org/2000/svg">
<path fill-rule="evenodd" clip-rule="evenodd" d="M48.9612 0.0205367C71.76 -0.730213 89.0266 19.2964 109.987 28.2861C134.18 38.6617 164.295 37.7024 182.066 57.1064C200.536 77.2742 217.327 108.687 206.683 133.868C194.826 161.919 153.875 161.747 129.891 180.54C116.588 190.964 112.094 209.411 98.1264 218.929C83.5737 228.846 66.4505 237.8 48.9612 235.689C31.777 233.614 22.5073 213.655 6.20843 207.835C-15.2523 200.171 -50.2972 217.313 -60.077 196.751C-70.2949 175.266 -26.2501 157.498 -28.9704 133.868C-32.2901 105.031 -80.9689 90.5667 -75.5846 62.0422C-71.045 37.9921 -31.7128 43.1496 -9.78541 32.2302C10.5526 22.1022 26.2481 0.768462 48.9612 0.0205367Z" fill="#E1D6C4"/>
<path fill-rule="evenodd" clip-rule="evenodd" d="M51.3579 16.0178C71.1275 15.3657 86.1 32.7617 104.276 40.5706C125.254 49.5833 151.367 48.75 166.777 65.6051C182.793 83.1238 197.354 110.41 188.124 132.284C177.842 156.65 142.332 156.501 121.535 172.825C109.999 181.88 106.102 197.904 93.9908 206.172C81.3716 214.786 66.5235 222.563 51.3579 220.729C36.457 218.928 28.4189 201.59 14.2856 196.535C-4.32363 189.877 -34.7123 204.768 -43.1926 186.906C-52.0529 168.244 -13.8602 152.809 -16.2191 132.284C-19.0977 107.235 -61.3087 94.6702 -56.6398 69.8926C-52.7033 49.0016 -18.5971 53.4817 0.41685 43.9965C18.0526 35.1989 31.6627 16.6675 51.3579 16.0178Z" fill="#EFE8DC"/>
</svg>