<svg id="Layer_1" data-name="Layer 1" xmlns="http://www.w3.org/2000/svg" viewBox="0 0 146.63 145.48"><defs><style>.cls-1,.cls-2,.cls-3{fill:none;stroke-linecap:round;stroke-miterlimit:10;stroke-width:6px;}.cls-1{stroke:#231f20;}.cls-2{stroke:#ffde17;}.cls-3{stroke:#ed1c24;}</style></defs><path class="cls-1" d="M37,38.51A55.05,55.05,0,0,0,28,62c-.33,2.39-.36,5.17,1.43,6.8,1.57,1.43,4,1.38,6.05.87,5.87-1.45,10.51-5.8,15-9.89Q61.18,49.83,72.6,40.65c5.31-4.27,10.81-8.47,17.11-11.08A5.45,5.45,0,0,1,93.34,29a4,4,0,0,1,2.37,4.1,10.59,10.59,0,0,1-1.89,4.69C82.64,56,65.5,70.44,57.18,90.08c-1.5,3.55-3,7-2,10.77" transform="translate(-24.78 -25.9)"/><path class="cls-2" d="M55.34,101.43a5.1,5.1,0,0,0,1.85,2.95c1.44,1,3.39.78,5.09.33,5-1.32,9.45-4.09,13.66-7.06,14.7-10.37,27.24-23.51,41.55-34.4,5.11-3.88,10.58-7.54,16.82-9a4.64,4.64,0,0,1,2.71-.05,3.42,3.42,0,0,1,1.84,3.64,9.54,9.54,0,0,1-1.8,4c-12.76,19.06-31.19,33.85-43.57,53.15-4.45,6.93-8.16,14.76-8,23,0,2.32.67,5,2.78,6a5.6,5.6,0,0,0,4,0" transform="translate(-24.78 -25.9)"/><path class="cls-3" d="M92.91,143.72c3.13-.93,5.78-3,8.3-5.09,17.2-14.17,32.75-30.29,50.44-43.84,3.49-2.67,7.18-5.3,11.46-6.34a5.2,5.2,0,0,1,3.17,0c2.61,1.07,2.45,4.84,1.45,7.48-3.49,9.13-11.28,15.8-17.17,23.6a64.84,64.84,0,0,0-12.85,34.7c-.28,4.42.17,9.46,3.62,12.25,4.63,3.75,11.47,1.2,16.8-1.47" transform="translate(-24.78 -25.9)"/></svg>