<svg width="31" height="31" viewBox="0 0 31 31" fill="none" xmlns="http://www.w3.org/2000/svg">
<path d="M15.4998 1.72217C12.8177 1.72441 10.2453 2.78795 8.34471 4.68051C6.44408 6.57307 5.36961 9.14084 5.35596 11.823C5.35596 15.8444 7.61207 19.2113 9.2654 21.6655L9.56679 22.1133C11.2118 24.4974 12.9764 26.7966 14.854 29.0022L15.5085 29.7686L16.1629 29.0022C18.0403 26.7964 19.8049 24.4972 21.4501 22.1133L21.7515 21.6569C23.3962 19.2027 25.6523 15.8444 25.6523 11.823C25.6387 9.13935 24.563 6.57028 22.6605 4.67748C20.7581 2.78467 18.1835 1.72213 15.4998 1.72217ZM15.4998 16.3611C14.3826 16.3611 13.2904 16.0298 12.3615 15.409C11.4325 14.7883 10.7085 13.9061 10.281 12.8739C9.8534 11.8417 9.74154 10.7059 9.9595 9.61013C10.1775 8.51435 10.7155 7.50781 11.5055 6.7178C12.2955 5.92779 13.302 5.38978 14.3978 5.17182C15.4936 4.95386 16.6294 5.06572 17.6616 5.49328C18.6938 5.92083 19.576 6.64486 20.1967 7.57381C20.8174 8.50277 21.1487 9.59492 21.1487 10.7122C21.1487 12.2103 20.5536 13.6472 19.4942 14.7065C18.4348 15.7659 16.998 16.3611 15.4998 16.3611Z" fill="#F4F2ED"/>
<path d="M15.5 13.9241C17.2739 13.9241 18.712 12.4861 18.712 10.7122C18.712 8.93828 17.2739 7.50024 15.5 7.50024C13.7261 7.50024 12.2881 8.93828 12.2881 10.7122C12.2881 12.4861 13.7261 13.9241 15.5 13.9241Z" fill="#F4F2ED"/>
</svg>
