<svg width="31" height="31" viewBox="0 0 31 31" fill="none" xmlns="http://www.w3.org/2000/svg">
<path d="M15.5001 5.78662C14.5242 5.78662 13.5702 6.076 12.7588 6.61818C11.9474 7.16035 11.315 7.93096 10.9415 8.83256C10.5681 9.73416 10.4703 10.7263 10.6607 11.6834C10.8511 12.6405 11.321 13.5197 12.0111 14.2098C12.7012 14.8998 13.5803 15.3698 14.5375 15.5601C15.4946 15.7505 16.4867 15.6528 17.3883 15.2794C18.2899 14.9059 19.0605 14.2735 19.6027 13.4621C20.1449 12.6506 20.4343 11.6967 20.4343 10.7208C20.4343 9.41217 19.9144 8.15714 18.9891 7.23181C18.0637 6.30647 16.8087 5.78662 15.5001 5.78662ZM15.5001 13.9327C14.8648 13.9327 14.2438 13.7444 13.7156 13.3914C13.1874 13.0385 12.7757 12.5369 12.5326 11.9499C12.2895 11.363 12.2259 10.7172 12.3499 10.0942C12.4738 9.47111 12.7797 8.8988 13.2289 8.4496C13.6781 8.0004 14.2504 7.69449 14.8735 7.57056C15.4965 7.44663 16.1423 7.51023 16.7292 7.75334C17.3162 7.99644 17.8178 8.40813 18.1707 8.93633C18.5237 9.46453 18.712 10.0855 18.712 10.7208C18.7098 11.5712 18.3703 12.3859 17.7682 12.9864C17.1661 13.5869 16.3505 13.9241 15.5001 13.9241V13.9327Z" fill="#F4F2ED"/>
<path d="M15.4998 1.72217C12.8177 1.72441 10.2453 2.78795 8.34471 4.68051C6.44408 6.57307 5.36961 9.14084 5.35596 11.823C5.35596 15.8444 7.61207 19.2113 9.2654 21.6655L9.56679 22.1133C11.2118 24.4974 12.9764 26.7966 14.854 29.0022L15.5085 29.7686L16.1629 29.0022C18.0403 26.7964 19.8049 24.4972 21.4501 22.1133L21.7515 21.6569C23.3962 19.2027 25.6523 15.8444 25.6523 11.823C25.6387 9.13935 24.563 6.57028 22.6605 4.67748C20.7581 2.78467 18.1835 1.72213 15.4998 1.72217ZM20.3135 20.6666L20.0035 21.123C18.5223 23.3447 16.559 25.8333 15.4998 27.0647C14.4837 25.8333 12.4773 23.3447 10.9962 21.123L10.6948 20.6666C9.17068 18.3933 7.07818 15.2847 7.07818 11.7886C7.07818 10.6826 7.29601 9.58749 7.71924 8.56573C8.14247 7.54396 8.7628 6.61556 9.54483 5.83354C10.3269 5.05152 11.2552 4.43118 12.277 4.00795C13.2988 3.58472 14.3939 3.36689 15.4998 3.36689C16.6058 3.36689 17.7009 3.58472 18.7227 4.00795C19.7444 4.43118 20.6728 5.05152 21.4549 5.83354C22.2369 6.61556 22.8572 7.54396 23.2805 8.56573C23.7037 9.58749 23.9215 10.6826 23.9215 11.7886C23.9215 15.3191 21.8376 18.4277 20.3135 20.6666Z" fill="#F4F2ED"/>
</svg>
