<svg width="34" height="26" viewBox="0 0 34 26" fill="none" xmlns="http://www.w3.org/2000/svg">
<path d="M6.47629 18V14H10.6858V18H6.47629ZM27.5237 2.988C27.5204 2.19443 27.1863 1.43445 26.5946 0.874433C26.0028 0.314416 25.2017 -6.34853e-06 24.3666 0H3.15711C2.31979 0 1.51677 0.316071 0.924697 0.87868C0.332623 1.44129 0 2.20435 0 3V21C0 22.3261 0.554373 23.5979 1.54116 24.5355C2.52795 25.4732 3.86632 26 5.26186 26H28.7381C30.1337 26 31.4721 25.4732 32.4588 24.5355C33.4456 23.5979 34 22.3261 34 21V9C34 8.20435 33.6674 7.44129 33.0753 6.87868C32.4832 6.31607 31.6802 6 30.8429 6H29.6285V20.46C29.6285 20.7252 29.5176 20.9796 29.3202 21.1671C29.1229 21.3546 28.8552 21.46 28.5761 21.46C28.297 21.46 28.0293 21.3546 27.8319 21.1671C27.6346 20.9796 27.5237 20.7252 27.5237 20.46V2.99V2.988ZM4.37155 7C4.37155 6.73478 4.48242 6.48043 4.67978 6.29289C4.87714 6.10536 5.14481 6 5.42392 6H22.2619C22.541 6 22.8086 6.10536 23.006 6.29289C23.2034 6.48043 23.3142 6.73478 23.3142 7C23.3142 7.26522 23.2034 7.51957 23.006 7.70711C22.8086 7.89464 22.541 8 22.2619 8H5.42392C5.14481 8 4.87714 7.89464 4.67978 7.70711C4.48242 7.51957 4.37155 7.26522 4.37155 7ZM15.9476 12H22.2619C22.541 12 22.8086 12.1054 23.006 12.2929C23.2034 12.4804 23.3142 12.7348 23.3142 13C23.3142 13.2652 23.2034 13.5196 23.006 13.7071C22.8086 13.8946 22.541 14 22.2619 14H15.9476C15.6685 14 15.4008 13.8946 15.2035 13.7071C15.0061 13.5196 14.8953 13.2652 14.8953 13C14.8953 12.7348 15.0061 12.4804 15.2035 12.2929C15.4008 12.1054 15.6685 12 15.9476 12ZM14.8953 19C14.8953 18.7348 15.0061 18.4804 15.2035 18.2929C15.4008 18.1054 15.6685 18 15.9476 18H22.2619C22.541 18 22.8086 18.1054 23.006 18.2929C23.2034 18.4804 23.3142 18.7348 23.3142 19C23.3142 19.2652 23.2034 19.5196 23.006 19.7071C22.8086 19.8946 22.541 20 22.2619 20H15.9476C15.6685 20 15.4008 19.8946 15.2035 19.7071C15.0061 19.5196 14.8953 19.2652 14.8953 19ZM5.42392 12H11.7381C12.0173 12 12.2849 12.1054 12.4823 12.2929C12.6796 12.4804 12.7905 12.7348 12.7905 13V19C12.7905 19.2652 12.6796 19.5196 12.4823 19.7071C12.2849 19.8946 12.0173 20 11.7381 20H5.42392C5.14481 20 4.87714 19.8946 4.67978 19.7071C4.48242 19.5196 4.37155 19.2652 4.37155 19V13C4.37155 12.7348 4.48242 12.4804 4.67978 12.2929C4.87714 12.1054 5.14481 12 5.42392 12Z" fill="#F4F2ED"/>
</svg>
