<svg width="32" height="27" viewBox="0 0 32 27" fill="none" xmlns="http://www.w3.org/2000/svg">
<path d="M6 7.26923C6 6.99381 6.10536 6.72968 6.29289 6.53493C6.48043 6.34018 6.73478 6.23077 7 6.23077H21C21.2652 6.23077 21.5196 6.34018 21.7071 6.53493C21.8946 6.72968 22 6.99381 22 7.26923C22 7.54465 21.8946 7.80878 21.7071 8.00353C21.5196 8.19828 21.2652 8.30769 21 8.30769H7C6.73478 8.30769 6.48043 8.19828 6.29289 8.00353C6.10536 7.80878 6 7.54465 6 7.26923ZM17 12.4615C16.7348 12.4615 16.4804 12.5709 16.2929 12.7657C16.1054 12.9604 16 13.2246 16 13.5C16 13.7754 16.1054 14.0396 16.2929 14.2343C16.4804 14.4291 16.7348 14.5385 17 14.5385H21C21.2652 14.5385 21.5196 14.4291 21.7071 14.2343C21.8946 14.0396 22 13.7754 22 13.5C22 13.2246 21.8946 12.9604 21.7071 12.7657C21.5196 12.5709 21.2652 12.4615 21 12.4615H17ZM16 19.7308C16 19.4554 16.1054 19.1912 16.2929 18.9965C16.4804 18.8017 16.7348 18.6923 17 18.6923H21C21.2652 18.6923 21.5196 18.8017 21.7071 18.9965C21.8946 19.1912 22 19.4554 22 19.7308C22 20.0062 21.8946 20.2703 21.7071 20.4651C21.5196 20.6598 21.2652 20.7692 21 20.7692H17C16.7348 20.7692 16.4804 20.6598 16.2929 20.4651C16.1054 20.2703 16 20.0062 16 19.7308ZM7 12.4615C6.73478 12.4615 6.48043 12.5709 6.29289 12.7657C6.10536 12.9604 6 13.2246 6 13.5V19.7308C6 20.0062 6.10536 20.2703 6.29289 20.4651C6.48043 20.6598 6.73478 20.7692 7 20.7692H13C13.2652 20.7692 13.5196 20.6598 13.7071 20.4651C13.8946 20.2703 14 20.0062 14 19.7308V13.5C14 13.2246 13.8946 12.9604 13.7071 12.7657C13.5196 12.5709 13.2652 12.4615 13 12.4615H7ZM8 18.6923V14.5385H12V18.6923H8ZM0 4.15385C0 3.05218 0.421427 1.99563 1.17157 1.21663C1.92172 0.437636 2.93913 0 4 0H24C25.0609 0 26.0783 0.437636 26.8284 1.21663C27.5786 1.99563 28 3.05218 28 4.15385V6.23077C29.0609 6.23077 30.0783 6.66841 30.8284 7.4474C31.5786 8.2264 32 9.28295 32 10.3846V21.8077C32 23.1848 31.4732 24.5055 30.5355 25.4792C29.5979 26.453 28.3261 27 27 27H5C3.67392 27 2.40215 26.453 1.46447 25.4792C0.526784 24.5055 0 23.1848 0 21.8077V4.15385ZM26 4.15385C26 3.60301 25.7893 3.07474 25.4142 2.68524C25.0391 2.29574 24.5304 2.07692 24 2.07692H4C3.46957 2.07692 2.96086 2.29574 2.58579 2.68524C2.21071 3.07474 2 3.60301 2 4.15385V21.8077C2 22.6339 2.31607 23.4264 2.87868 24.0106C3.44129 24.5949 4.20435 24.9231 5 24.9231H27C27.7956 24.9231 28.5587 24.5949 29.1213 24.0106C29.6839 23.4264 30 22.6339 30 21.8077V10.3846C30 9.83378 29.7893 9.30551 29.4142 8.91601C29.0391 8.52651 28.5304 8.30769 28 8.30769V21.8077C28 22.0831 27.8946 22.3472 27.7071 22.542C27.5196 22.7367 27.2652 22.8462 27 22.8462C26.7348 22.8462 26.4804 22.7367 26.2929 22.542C26.1054 22.3472 26 22.0831 26 21.8077V4.15385Z" fill="#F4F2ED"/>
</svg>
