<svg width="28" height="28" viewBox="0 0 28 28" fill="none" xmlns="http://www.w3.org/2000/svg">
<path d="M14.355 1.78119L14.0001 1.42338L13.6451 1.78106L1.1111 14.4096C1.04051 14.4657 0.952845 14.4943 0.863814 14.4909C0.769737 14.4872 0.679772 14.4479 0.612119 14.3798C0.54436 14.3115 0.504044 14.2192 0.500288 14.1213C0.496731 14.0285 0.52626 13.9381 0.582463 13.8664L13.739 0.610597C13.7392 0.610476 13.7393 0.610354 13.7394 0.610233C13.8105 0.539191 13.9058 0.5 14.0044 0.5C14.1029 0.5 14.1983 0.539191 14.2694 0.610233C14.2695 0.610354 14.2696 0.610476 14.2697 0.610597L27.3156 13.7549L27.4078 13.8633C27.4703 13.9369 27.5035 14.0321 27.4997 14.1301C27.496 14.2281 27.4556 14.3203 27.3879 14.3886C27.3202 14.4568 27.2303 14.4961 27.1362 14.4997C27.0472 14.5032 26.9595 14.4746 26.889 14.4185L14.355 1.78119Z" fill="black" stroke="#F4F2ED"/>
<path d="M23.1667 26.7759H23.6667V26.2759V15.1566L24.5 15.9403V26.2759C24.5 26.5903 24.3675 26.8985 24.1205 27.1308C23.8725 27.364 23.5299 27.5 23.1667 27.5H17.25V19.3793V18.8793H16.75H11.25H10.75V19.3793V27.5H4.83333C4.47014 27.5 4.12754 27.364 3.87951 27.1308C3.63253 26.8985 3.5 26.5903 3.5 26.2759V16.1472L4.33333 15.3635V26.2759V26.7759H4.83333H9.41667H9.91667V26.2759V18.1552H18.0833V26.2759V26.7759H18.5833H23.1667Z" fill="black" stroke="#F4F2ED"/>
</svg>
