<svg width="33" height="25" viewBox="0 0 33 25" fill="none" xmlns="http://www.w3.org/2000/svg">
<path d="M14.1458 24.25C14.1458 24.25 12.125 24.25 12.125 22.2292C12.125 20.2083 14.1458 14.1458 22.2292 14.1458C30.3125 14.1458 32.3333 20.2083 32.3333 22.2292C32.3333 24.25 30.3125 24.25 30.3125 24.25H14.1458ZM22.2292 12.125C23.837 12.125 25.3791 11.4863 26.516 10.3493C27.6529 9.21239 28.2917 7.67037 28.2917 6.0625C28.2917 4.45462 27.6529 2.9126 26.516 1.77567C25.3791 0.638726 23.837 0 22.2292 0C20.6213 0 19.0793 0.638726 17.9423 1.77567C16.8054 2.9126 16.1667 4.45462 16.1667 6.0625C16.1667 7.67037 16.8054 9.21239 17.9423 10.3493C19.0793 11.4863 20.6213 12.125 22.2292 12.125Z" fill="#F4F2ED"/>
<path fill-rule="evenodd" clip-rule="evenodd" d="M10.5407 24.2498C10.2411 23.6189 10.0917 22.9273 10.1042 22.229C10.1042 19.4907 11.4783 16.6717 14.0165 14.7115C12.7496 14.3211 11.4297 14.1302 10.1042 14.1456C2.02083 14.1456 0 20.2081 0 22.229C0 24.2498 2.02083 24.2498 2.02083 24.2498H10.5407Z" fill="#F4F2ED"/>
<path d="M9.09359 12.125C10.4335 12.125 11.7185 11.5928 12.6659 10.6453C13.6134 9.69787 14.1457 8.41285 14.1457 7.07296C14.1457 5.73306 13.6134 4.44804 12.6659 3.50059C11.7185 2.55315 10.4335 2.02087 9.09359 2.02087C7.75369 2.02087 6.46867 2.55315 5.52122 3.50059C4.57378 4.44804 4.0415 5.73306 4.0415 7.07296C4.0415 8.41285 4.57378 9.69787 5.52122 10.6453C6.46867 11.5928 7.75369 12.125 9.09359 12.125Z" fill="#F4F2ED"/>
</svg>
