<svg width="1021" height="1051" viewBox="0 0 1021 1051" fill="none" xmlns="http://www.w3.org/2000/svg">
<path fill-rule="evenodd" clip-rule="evenodd" d="M734.041 374.002C782.26 374.218 819.027 415.838 863.839 433.642C912.148 452.835 981.091 439.96 1009.55 483.461C1038.96 528.428 998.503 588.678 1000.39 642.379C1001.9 685.361 1021.28 725.363 1019.55 768.337C1017.63 816.205 1010.46 863.891 989.75 907.092C966.586 955.423 941.163 1009.74 892.789 1032.82C844.408 1055.89 779.238 1057.88 734.041 1029.06C684.805 997.667 691.858 918.522 649.88 877.932C624.588 853.476 581.834 863.954 549.34 850.465C499.784 829.894 436.667 822.981 408.095 777.566C381.431 735.184 380.488 669.577 410.166 629.248C443.218 584.334 524.036 606.64 563.138 566.88C596.366 533.092 572.253 467.945 603.681 432.476C635.666 396.379 685.812 373.785 734.041 374.002Z" fill="#C67B5C"/>
<path fill-rule="evenodd" clip-rule="evenodd" d="M741.168 421.001C782.577 421.187 814.152 456.937 852.635 472.23C894.121 488.716 953.327 477.657 977.765 515.022C1003.03 553.647 968.279 605.398 969.898 651.525C971.194 688.444 987.838 722.805 986.355 759.717C984.703 800.834 978.544 841.794 960.763 878.902C940.87 920.415 919.038 967.073 877.496 986.892C835.948 1006.71 779.982 1008.42 741.168 983.667C698.886 956.701 704.943 888.72 668.894 853.855C647.174 832.848 610.458 841.848 582.553 830.262C539.997 812.592 485.793 806.654 461.257 767.645C438.359 731.241 437.549 674.887 463.035 640.247C491.419 601.668 560.824 620.827 594.402 586.675C622.938 557.653 602.231 501.695 629.22 471.228C656.687 440.222 699.751 420.816 741.168 421.001Z" fill="#CB876B"/>
<path fill-rule="evenodd" clip-rule="evenodd" d="M306.207 13.6169C370.889 -8.23689 451.724 -5.86916 505.617 36.0534C559.304 77.8152 557.137 157.863 575.754 223.293C591.494 278.608 623 334.563 606.208 389.568C589.88 443.05 526.329 463.217 489.628 505.399C453.039 547.451 437.245 604.858 391.358 636.497C334.795 675.496 262.334 735.554 201.152 704.299C135.781 670.903 166.375 563.662 127.219 501.558C96.9249 453.51 16.9797 445.085 3.00456 390.028C-10.9095 335.212 26.1851 279.502 59.2003 233.589C88.4184 192.957 140.557 180.05 177.93 146.768C224.905 104.934 246.619 33.7496 306.207 13.6169Z" fill="#C67B5C"/>
<path fill-rule="evenodd" clip-rule="evenodd" d="M306.112 75.7835C362.113 56.8721 432.1 58.9211 478.76 95.1991C525.242 131.338 523.366 200.608 539.485 257.228C553.112 305.096 580.39 353.517 565.851 401.115C551.714 447.396 496.693 464.849 464.916 501.351C433.238 537.741 419.564 587.418 379.835 614.797C330.863 648.546 268.127 700.518 215.157 673.47C158.558 644.571 185.047 551.769 151.145 498.027C124.917 456.449 55.701 449.158 43.6013 401.514C31.5546 354.078 63.6709 305.869 92.2553 266.138C117.552 230.977 162.694 219.808 195.051 191.007C235.721 154.805 254.521 93.2055 306.112 75.7835Z" fill="#CB876B"/>
</svg>
