<svg width="791" height="775" viewBox="0 0 791 775" fill="none" xmlns="http://www.w3.org/2000/svg">
<path fill-rule="evenodd" clip-rule="evenodd" d="M382.189 54.5077C442.712 63.5921 513.216 26.6989 562.461 63.0406C612.356 99.8617 589.525 184.395 626.076 234.491C669.317 293.756 780.034 302.67 790.3 375.313C800.04 444.226 705.479 481.638 669.417 541.162C634.346 599.048 634.134 677.933 581.318 720.251C526.914 763.841 450.757 783.864 382.189 771.299C315.789 759.132 275.013 694.962 221.157 654.257C174.273 618.82 106.787 601.467 85.1786 546.81C63.5587 492.123 123.232 432.807 110.88 375.313C93.359 293.766 -11.5631 237.689 1.04915 155.24C12.5972 79.7472 93.8831 23.3021 167.712 3.78986C239.968 -15.3069 308.279 43.4142 382.189 54.5077Z" fill="#497F87"/>
<path fill-rule="evenodd" clip-rule="evenodd" d="M383.355 108.685C436.303 116.633 497.983 84.3572 541.064 116.15C584.714 148.363 564.741 222.316 596.717 266.141C634.546 317.989 731.406 325.787 740.388 389.339C748.908 449.626 666.183 482.356 634.634 534.429C603.952 585.07 603.767 654.082 557.561 691.103C509.967 729.238 443.341 746.754 383.355 735.763C325.265 725.118 289.593 668.98 242.478 633.369C201.461 602.368 142.421 587.186 123.518 539.371C104.604 491.529 156.809 439.636 146.002 389.339C130.674 317.998 38.8841 268.94 49.9178 196.81C60.0206 130.766 131.133 81.3856 195.721 64.3155C258.934 47.6089 318.696 98.9804 383.355 108.685Z" fill="#75ACC0"/>
</svg>
