<svg id="Layer_1" data-name="Layer 1" xmlns="http://www.w3.org/2000/svg" viewBox="0 0 174.48 186.45"><defs><style>.cls-1,.cls-2,.cls-3{fill:none;stroke-linecap:round;stroke-miterlimit:10;stroke-width:6px;}.cls-1{stroke:#231f20;}.cls-2{stroke:#ffde17;}.cls-3{stroke:#ed1c24;}.cls-4{font-size:28px;fill:#231f20;font-family:Karla-Bold, Karla;font-weight:700;}</style></defs><path class="cls-1" d="M34.39,19.52A54.84,54.84,0,0,0,25.32,43c-.33,2.39-.37,5.17,1.42,6.8,1.57,1.43,4,1.38,6.05.87,5.87-1.45,10.52-5.8,15-9.89Q58.54,30.84,70,21.66c5.32-4.27,10.82-8.46,17.11-11.08a5.52,5.52,0,0,1,3.63-.53,3.94,3.94,0,0,1,2.38,4.1,10.7,10.7,0,0,1-1.89,4.69C80,37,62.86,51.45,54.54,71.1c-1.5,3.54-3,7-2,10.76" transform="translate(-12.2 -6.91)"/><path class="cls-2" d="M52.7,82.44a5.15,5.15,0,0,0,1.85,3c1.44,1,3.39.77,5.09.32,5-1.32,9.45-4.09,13.66-7.06,14.7-10.37,27.24-23.51,41.56-34.4,5.1-3.88,10.58-7.54,16.81-9a4.64,4.64,0,0,1,2.71-.06,3.42,3.42,0,0,1,1.84,3.64,9.41,9.41,0,0,1-1.8,4c-12.76,19.06-31.19,33.85-43.57,53.15-4.45,6.93-8.16,14.76-8,23,.05,2.32.67,5,2.78,6a5.6,5.6,0,0,0,4,0" transform="translate(-12.2 -6.91)"/><path class="cls-3" d="M90.27,124.73c3.14-.93,5.78-3,8.3-5.09,17.2-14.17,32.75-30.29,50.44-43.84,3.49-2.67,7.19-5.3,11.46-6.34a5.2,5.2,0,0,1,3.17,0c2.61,1.07,2.46,4.84,1.45,7.48-3.48,9.13-11.28,15.8-17.17,23.6a64.84,64.84,0,0,0-12.85,34.7c-.28,4.42.18,9.46,3.62,12.25,4.64,3.75,11.47,1.2,16.8-1.47" transform="translate(-12.2 -6.91)"/><text class="cls-4" transform="translate(0 179.56)">B<tspan x="18.14" y="0">ES</tspan><tspan x="52.42" y="0">implified</tspan></text></svg>