<svg width="282" height="276" viewBox="0 0 282 276" fill="none" xmlns="http://www.w3.org/2000/svg">
<path fill-rule="evenodd" clip-rule="evenodd" d="M140.627 32.0614C162.721 27.6109 177.366 -4.09963 199.442 0.444195C219.015 4.47282 221.919 32.7608 230.871 50.6362C238.507 65.8849 240.843 82.7223 248.32 98.0496C258.074 118.045 285.051 132.866 281.716 154.864C278.483 176.197 247.551 180.39 233.375 196.649C219.948 212.049 216.326 234.388 200.802 247.669C183.74 262.267 163.076 276.069 140.627 276C118.178 275.93 100.677 257.407 80.6301 247.297C60.9143 237.355 32.2008 236.628 22.8615 216.611C12.8082 195.063 38.0859 170.427 33.8482 147.029C29.8868 125.155 -1.06666 112.738 0.0283624 90.5351C1.06942 69.4268 22.0906 54.1923 39.0483 41.5924C54.3973 30.1879 73.1729 23.8303 92.2076 22.0443C108.825 20.4851 124.265 35.3572 140.627 32.0614Z" fill="#E1D6C4"/>
<path fill-rule="evenodd" clip-rule="evenodd" d="M134.178 46.6472C153.217 42.8094 165.837 15.4648 184.86 19.383C201.725 22.857 204.228 47.2503 211.942 62.6646C218.522 75.8138 220.535 90.333 226.978 103.55C235.383 120.792 258.629 133.573 255.756 152.542C252.969 170.938 226.315 174.554 214.1 188.574C202.53 201.854 199.409 221.117 186.032 232.57C171.329 245.158 153.523 257.06 134.178 257C114.834 256.94 99.7532 240.967 82.4791 232.249C65.49 223.675 40.7475 223.048 32.6998 205.787C24.0369 187.207 45.8187 165.963 42.1671 145.786C38.7535 126.924 12.0809 116.216 13.0244 97.0701C13.9215 78.8681 32.0355 65.7311 46.648 54.8659C59.8742 45.0316 76.0532 39.5494 92.4555 38.0092C106.775 36.6647 120.079 49.4892 134.178 46.6472Z" fill="#EFE8DC"/>
</svg>
