<svg width="286" height="236" viewBox="0 0 286 236" fill="none" xmlns="http://www.w3.org/2000/svg">
<path fill-rule="evenodd" clip-rule="evenodd" d="M124.961 0.0205367C147.76 -0.730213 165.027 19.2964 185.987 28.2861C210.18 38.6617 240.295 37.7024 258.066 57.1064C276.536 77.2742 293.327 108.687 282.683 133.868C270.826 161.919 229.875 161.747 205.891 180.54C192.588 190.964 188.094 209.411 174.126 218.929C159.574 228.846 142.451 237.8 124.961 235.689C107.777 233.614 98.5073 213.655 82.2084 207.835C60.7477 200.171 25.7028 217.313 15.923 196.751C5.70509 175.266 49.7499 157.498 47.0296 133.868C43.7099 105.031 -4.96886 90.5667 0.415375 62.0422C4.95501 37.9921 44.2872 43.1496 66.2146 32.2302C86.5526 22.1022 102.248 0.768462 124.961 0.0205367Z" fill="#C67B5C"/>
<path fill-rule="evenodd" clip-rule="evenodd" d="M127.358 16.0178C147.128 15.3657 162.1 32.7617 180.276 40.5706C201.254 49.5833 227.367 48.75 242.777 65.6051C258.793 83.1238 273.354 110.41 264.124 132.284C253.842 156.65 218.332 156.501 197.535 172.825C185.999 181.88 182.102 197.904 169.991 206.172C157.372 214.786 142.524 222.563 127.358 220.729C112.457 218.928 104.419 201.59 90.2856 196.535C71.6764 189.877 41.2877 204.768 32.8074 186.906C23.9471 168.244 62.1398 152.809 59.7809 132.284C56.9023 107.235 14.6913 94.6702 19.3602 69.8926C23.2967 49.0016 57.4029 53.4817 76.4168 43.9965C94.0526 35.1989 107.663 16.6675 127.358 16.0178Z" fill="#CB876B"/>
</svg>
