<svg width="34" height="34" viewBox="0 0 34 34" fill="none" xmlns="http://www.w3.org/2000/svg">
<path d="M32.9398 18C32.7997 18.0008 32.6608 17.9741 32.5311 17.9213C32.4014 17.8686 32.2834 17.7909 32.1839 17.6928L16.9705 2.54339L1.75711 17.6928C1.55344 17.8663 1.29147 17.957 1.02353 17.9467C0.755589 17.9364 0.501423 17.8259 0.31182 17.6372C0.122218 17.4485 0.0111433 17.1956 0.000793973 16.929C-0.00955535 16.6624 0.0815825 16.4017 0.255995 16.199L16.2253 0.308065C16.4247 0.110751 16.6946 0 16.9758 0C17.2571 0 17.5269 0.110751 17.7264 0.308065L33.6957 16.199C33.8422 16.3477 33.9414 16.5361 33.9809 16.7406C34.0204 16.9451 33.9984 17.1567 33.9178 17.3489C33.8371 17.541 33.7013 17.7053 33.5274 17.8211C33.3534 17.9369 33.1491 17.9991 32.9398 18Z" fill="#F4F2ED"/>
<path d="M17 6L5 18.8623V31.8634C5 32.4301 5.21071 32.9735 5.58579 33.3742C5.96086 33.7749 6.46957 34 7 34H14V23.3171H20V34H27C27.5304 34 28.0391 33.7749 28.4142 33.3742C28.7893 32.9735 29 32.4301 29 31.8634V18.7875L17 6Z" fill="#F4F2ED"/>
</svg>
