<svg width="28" height="28" viewBox="0 0 28 28" fill="none" xmlns="http://www.w3.org/2000/svg">
<path d="M24.0607 0.895562L24.3263 0.629952C24.5263 0.43015 24.7636 0.271681 25.0247 0.163594C25.2859 0.0555065 25.5658 -8.26736e-05 25.8484 9.22855e-08C26.131 8.28582e-05 26.4109 0.055836 26.672 0.164076C26.9331 0.272316 27.1703 0.430924 27.3701 0.630843C27.5699 0.830762 27.7283 1.06808 27.8364 1.32924C27.9445 1.5904 28.0001 1.8703 28 2.15294C27.9999 2.43559 27.9442 2.71545 27.8359 2.97655C27.7277 3.23765 27.5691 3.47487 27.3692 3.67467L27.1036 3.9385C27.5579 4.44808 27.8001 5.11216 27.7806 5.79461C27.761 6.47707 27.4812 7.12619 26.9984 7.60892L8.65224 25.9574C8.53755 26.0715 8.39398 26.1523 8.23691 26.191L1.10664 27.9736C0.957431 28.0107 0.801142 28.0087 0.652969 27.9675C0.504797 27.9264 0.369783 27.8477 0.261051 27.7389C0.152318 27.6302 0.0735667 27.4952 0.0324511 27.347C-0.00866447 27.1988 -0.0107454 27.0425 0.0264105 26.8933L1.80898 19.7628C1.84798 19.6064 1.92868 19.4635 2.04249 19.3493L19.23 2.16122C19.0581 2.04024 18.849 1.9839 18.6396 2.00217C18.4301 2.02043 18.2339 2.11213 18.0856 2.26105L12.2174 8.13122C12.1345 8.2141 12.0361 8.27983 11.9279 8.32468C11.8196 8.36953 11.7035 8.39261 11.5863 8.39261C11.4692 8.39261 11.3531 8.36953 11.2448 8.32468C11.1366 8.27983 11.0382 8.2141 10.9553 8.13122C10.8724 8.04835 10.8067 7.94997 10.7619 7.8417C10.717 7.73342 10.6939 7.61737 10.6939 7.50018C10.6939 7.38298 10.717 7.26693 10.7619 7.15866C10.8067 7.05038 10.8724 6.952 10.9553 6.86913L16.8271 1.00074C17.3101 0.517674 17.9597 0.237812 18.6426 0.218585C19.3254 0.199359 19.9897 0.442226 20.4992 0.897345C20.989 0.459602 21.6227 0.217474 22.2796 0.217145C22.9365 0.216817 23.5705 0.45831 24.0607 0.895562Z" fill="#F4F2ED"/>
</svg>
