<svg width="27" height="27" viewBox="0 0 27 27" fill="none" xmlns="http://www.w3.org/2000/svg">
<path d="M23.2014 0.863578L23.4575 0.607453C23.6503 0.414787 23.8791 0.261978 24.131 0.157751C24.3828 0.0535241 24.6527 -7.9721e-05 24.9252 8.89896e-08C25.1978 7.98989e-05 25.4676 0.0538418 25.7194 0.158216C25.9712 0.262591 26.1999 0.415534 26.3926 0.608313C26.5852 0.801092 26.738 1.02993 26.8423 1.28177C26.9465 1.5336 27.0001 1.8035 27 2.07605C26.9999 2.3486 26.9462 2.61847 26.8418 2.87024C26.7374 3.12201 26.5845 3.35077 26.3917 3.54343L26.1356 3.79784C26.5737 4.28922 26.8073 4.92959 26.7884 5.58766C26.7696 6.24574 26.4997 6.87168 26.0342 7.33717L8.34324 25.0304C8.23264 25.1404 8.09419 25.2183 7.94273 25.2556L1.06712 26.9745C0.923237 27.0104 0.772529 27.0084 0.629649 26.9687C0.486769 26.9291 0.356577 26.8531 0.251727 26.7483C0.146878 26.6434 0.0709393 26.5132 0.0312922 26.3703C-0.00835502 26.2274 -0.0103617 26.0767 0.0254673 25.9328L1.74437 19.057C1.78198 18.9062 1.8598 18.7683 1.96955 18.6582L18.5432 2.08404C18.3774 1.96737 18.1758 1.91305 17.9739 1.93066C17.7719 1.94828 17.5827 2.03669 17.4397 2.1803L11.781 7.84082C11.7011 7.92073 11.6063 7.98412 11.5019 8.02737C11.3975 8.07062 11.2856 8.09288 11.1725 8.09288C11.0595 8.09288 10.9476 8.07062 10.8432 8.02737C10.7388 7.98412 10.644 7.92073 10.5641 7.84082C10.4841 7.76091 10.4208 7.66605 10.3775 7.56164C10.3343 7.45723 10.312 7.34532 10.312 7.23231C10.312 7.1193 10.3343 7.0074 10.3775 6.90299C10.4208 6.79858 10.4841 6.70371 10.5641 6.6238L16.2261 0.964996C16.6919 0.499185 17.3183 0.229319 17.9768 0.210779C18.6352 0.192239 19.2758 0.426432 19.7671 0.865297C20.2393 0.443188 20.8505 0.209707 21.4839 0.20939C22.1173 0.209073 22.7287 0.441942 23.2014 0.863578ZM22.0945 2.1803C21.9333 2.01917 21.7147 1.92866 21.4868 1.92866C21.2589 1.92866 21.0404 2.01917 20.8792 2.1803L3.35154 19.7051L2.0383 24.9599L7.29299 23.6466L24.8206 6.12187C24.9007 6.04203 24.9642 5.94718 25.0075 5.84277C25.0508 5.73835 25.0731 5.62641 25.0731 5.51336C25.0731 5.4003 25.0508 5.28836 25.0075 5.18395C24.9642 5.07953 24.9007 4.98468 24.8206 4.90485L22.0962 2.1803H22.0945Z" fill="#F4F2ED"/>
</svg>
